<svg fill="none" height="16" viewBox="0 0 16 16" width="16" xmlns="http://www.w3.org/2000/svg"><path d="m11.573.275c-.066.019-.152.052-.191.073s-1.383 1.172-2.986 2.558c-1.604 1.385-2.934 2.518-2.956 2.518s-.664-.468-1.427-1.04c-.762-.571-1.428-1.057-1.48-1.078-.15-.063-.468-.05-.613.024-.166.086-1.731 1.645-1.826 1.82-.13.24-.114.554.04.766.041.057.575.557 1.185 1.11.611.553 1.107 1.015 1.102 1.026-.004.012-.495.442-1.091.957-.596.514-1.122.981-1.168 1.036-.177.214-.206.552-.069.804.096.175 1.659 1.734 1.827 1.821.166.087.497.089.653.005.059-.031.7-.502 1.424-1.046l1.318-.988.109.1c.06.055 1.289 1.168 2.73 2.473 1.846 1.671 2.666 2.396 2.772 2.453l.15.08h.674.674l1.631-.814c1.5-.748 1.64-.823 1.748-.942.213-.237.197.241.197-5.738 0-5.821.009-5.468-.151-5.699-.058-.084-.41-.331-1.634-1.148-.857-.572-1.613-1.065-1.68-1.095-.1-.045-.187-.056-.482-.063-.237-.005-.401.004-.48.027m1.699 2.305 1.233.82.001 4.82.001 4.82-1.205.6-1.204.6h-.285-.284l-2.869-2.596c-1.578-1.428-2.912-2.616-2.963-2.641-.199-.094-.5-.101-.661-.014-.034.018-.651.475-1.372 1.015-.721.541-1.322.983-1.335.983-.03 0-.477-.448-.461-.462.673-.577 2.078-1.794 2.182-1.891.086-.081.169-.192.21-.28.057-.127.065-.174.054-.343-.01-.158-.028-.223-.091-.324-.053-.086-.454-.466-1.229-1.167l-1.15-1.04.231-.233c.127-.129.242-.234.256-.234.013 0 .644.465 1.4 1.033 1.496 1.123 1.537 1.148 1.81 1.116.078-.009.192-.04.253-.069.062-.029.503-.39.979-.802.477-.412 1.011-.874 1.187-1.026s1.16-1.002 2.187-1.89c1.026-.887 1.872-1.614 1.879-1.614.008-.001.568.368 1.246.819m-1.632 1.677c-.029.006-.101.029-.16.051-.059.021-1.079.738-2.267 1.593-2.346 1.689-2.293 1.646-2.362 1.953-.026.115-.026.177 0 .292.068.307.017.264 2.362 1.953 1.188.855 2.214 1.576 2.28 1.601.347.133.743-.029.929-.38l.071-.133v-3.187-3.187l-.071-.133c-.089-.168-.214-.289-.369-.356-.127-.056-.324-.088-.413-.067m-.66 4.5-.007.757-1.046-.75c-.575-.413-1.046-.757-1.046-.764s.471-.351 1.046-.764l1.046-.75.007.757c.004.416.004 1.098 0 1.514" fill="#000" fill-rule="evenodd"/></svg>