<svg enable-background="new 0 0 76.00 76.00" height="76" viewBox="0 0 76 76" width="76" xmlns="http://www.w3.org/2000/svg"><path d="m42.949 51.2614 2.7707 1.9789-.4534.0724.4534.3238c-4.4236.7149-7.7678.9859-10.2579.9679-7.3777.0358-7.6744-2.3582-6.1653-3.5586.3471-.4466.9305-.8093 1.5806-.9719 0 3.1664 7.3223 1.9791 12.0719 1.1875zm.9894-5.5412 2.3748 1.5833c-5.1465 1.7798-8.3011 1.8853-11.1073 1.8675-7.5312.0302-8.5526-2.1172-7.142-3.0908.2134-.3355.6526-.6115 1.23-.7558.7916 3.1664 7.1244 1.5832 14.6445.3958zm4.3539 2.7706s2.414-1.5572 4.2299-3.3097c.7349-.7626 1.3176-1.5425 1.509-2.2316.9896-3.5623-4.5516-3.5623-4.5516-3.5623.3894-.1416 7.5204-2.9705 7.0235 2.6181.1334 2.6273-2.4148 6.0536-8.0888 6.7988-.1697.0298-.2681-.0788-.122-.3133zm.7916-26.9145-.5172.4229-.0209.1061.5381-.1329c-1.4571 1.4571-7.7662 4.2908-7.9992 7.7856l.0832.526c.4981 1.9924 3.0336 3.4364 2.8728 5.6139.1008 1.3617-.8171 3.0008-4.0602 5.2709l.1346-.3813c-.1695.125-.3462.2519-.5305.3809l1.1874-3.3644c.7916-2.3748-3.1664-3.1664-3.1664-6.3328 0-2.188 1.0325-3.9253 2.4672-5.2832 3.2076-3.391 9.0111-4.6117 9.0111-4.6117zm-6.3328-10.2907c1.3715 1.5239 1.8922 2.9891 1.8376 4.3928.2381 6.0689-10.5798 11.0117-10.7432 14.6059.1374 3.1794 3.3966 7.9479 4.156 8.7073l-.8513-.6946.8513 1.0907s-.4631-.3541-1.1462-.948c.3248.4564.5919.7892.7503.9475 0 0-6.7287-5.1453-6.7287-9.1033 0-1.5433.7943-3.3122 3.17-5.6274 1.3097-1.344 3.1659-2.8757 5.7356-4.6633.3181-.2213.6063-.4542.8671-.696 2.9672-3.2003 1.7056-7.616 1.7056-7.616.1937.2152.3703.4292.5308.642-.0671-.4043-.1349-.6415-.1349-.6415l.115.1298zm-11.0824 27.706-1.4529.5686c.6448-.1112 1.057-.173 1.057-.173-.109.0409-.2173.0817-.3248.1226l.7207-.1221c-2.2165.8312-4.1664 1.6624-4.5767 2.256.7021.74 6.2038.7128 21.794-1.0689l-.8916.4521c.1641-.0186.3294-.0374.4028-.0006l.4888-.0554s-4.5155 2.9132-15.7961 2.8662c-1.9727.0039-4.1574-.0832-6.5667-.2941-3.9856-.6405-4.4902-1.3578-3.5021-2.0138.6319-1.3353 8.6476-2.5376 8.6476-2.5376zm-5.5412 15.0403-.6696.3999c.0928-.0028.1841-.0042.2435.012l.4261-.0157s-1.9886 1.0438-2.2551 2.0024c.1931.6055 1.3748 1.1035 4.6299 1.1637 21.3732.3957 26.1228-2.7707 26.1228-2.7707l-.6705.7246.6705-.3284c-2.4828 3.1035-7.8858 4.2602-17.7355 4.2333-2.8101.0016-5.9895.2994-9.5748.1201-8.5523-.4276-9.7128-2.1751-8.2232-3.3276.802-1.1405 4.5628-2.2136 7.0359-2.2136zm31.6642 3.9585c-2.5537 3.6481-10.1024 5.0021-16.646 4.9747-7.7952.0156-15.0184-1.0167-15.0184-1.4128 0 0 18.9978 1.781 31.6644-3.5619z" stroke-linejoin="round" stroke-width=".2"/></svg>