<svg fill="none" height="24" viewBox="0 0 24 24" width="24" xmlns="http://www.w3.org/2000/svg"><g fill="#000"><path d="m12 22.75c-1.05 0-2.09998-.08-3.13998-.24-1.19-.18-2.05-1.19-2.06-2.39v-5.9c0-1.64 1.33-2.97 2.97-2.97h4.43998c.81 0 1.47-.66 1.47-1.46999v-5.88999c0-.46-.33-.84-.79-.91-1.93-.3-3.88-.3-5.80998 0-.45.07-.78998.45998-.78998.91998v3.67002c0 .41-.34.75-.75.75s-.75-.34-.75-.75v-3.67002c.01-1.2.87-2.20998 2.06-2.38998 2.07996-.32 4.18996-.32 6.26996 0 1.19.18 2.05 1.18998 2.06 2.38998v5.9c0 1.64-1.33 2.97-2.97 2.97h-4.43998c-.81 0-1.47.66-1.47 1.47v5.89c0 .46.33001.84.79001.91 1.92997.3 3.87997.3 5.80997 0 .45-.07.79-.46.79-.92v-3.67c0-.41.34-.75.75-.75s.75.34.75.75v3.67c-.01 1.2-.87 2.21-2.06 2.39-1.03.16-2.08.24-3.13.24z"/><path d="m12 17.1898c-.41 0-.75-.34-.75-.75s.34-.75.75-.75h8.12c.46 0 .84-.33.91-.79.3-1.93.3-3.88 0-5.80999-.07-.46-.45-.79001-.91-.79001h-3.67c-.41 0-.75-.34-.75-.75s.34-.75.75-.75h3.67c1.2.01 2.21.87 2.39 2.06.32 2.08.32 4.19 0 6.27-.18 1.19-1.19 2.05-2.39 2.06z"/><path d="m7.55976 17.1898h-3.66998c-1.2-.01-2.21001-.87-2.39001-2.06-.32-2.08-.32-4.19 0-6.27.18-1.19 1.19001-2.05 2.39001-2.06h8.11002c.41 0 .75.34.75.75s-.34.75-.75.75h-8.12003c-.46 0-.84.33001-.91.79001-.3 1.92999-.3 3.87999 0 5.80999.07.46.45.79.91.79h3.66998c.41 0 .75.34.75.75s-.32999.75-.73999.75z"/><path d="m10.3295 5.5802c-.40997 0-.80997-.39-.80997-.81s.39-.79999.80997-.79999c.19 0 .4201.09001.5601.22001.15.14.25.37998.25.57998 0 .42-.3901.81-.8101.81z"/><path d="m13.6704 20.0302c-.41 0-.81-.39-.81-.81s.39-.81.81-.81c.19 0 .42.09.56.22.15.14.25.3799.25.5799-.01.43-.4.8201-.81.8201z"/></g></svg>