<svg fill="none" height="15" viewBox="0 0 15 15" width="15" xmlns="http://www.w3.org/2000/svg"><path d="m7.5.5.13736-.480762c-.08978-.02565068-.18494-.02565068-.27472 0zm-7 2-.137361-.48076c-.234562.06702-.3865204.29352-.35958086.53598zm1 9-.49694.0552c.01873.1686.12163.3162.27333.392zm6 3-.22361.4472c.14077.0704.30645.0704.44722 0zm6-3 .2236.4472c.1517-.0758.2546-.2234.2733-.392zm1-9 .4969.05522c.027-.24246-.125-.46896-.3595-.53598zm-7 .5.45808-.20041-.45808-1.04704-.45808 1.04704zm-.13736-2.980762-7.000001 2.000002.274722.96152 6.999999-1.999998zm-7.35958186 2.535982 1.00000186 8.99998.99388-.1104-.999998-9.00002zm1.27333186 9.39198 6 3 .44722-.8944-6-3zm6.44722 3 5.99999-3-.4472-.8944-6.00001 3zm6.27329-3.392 1-8.99998-.9938-.11044-1 9.00002zm.6405-9.53596-7.00004-2.000002-.27472.961524 6.99996 1.999998zm-10.17932 9.18116 3.5-7.99999-.91616-.40082-3.5 8.00001zm2.58384-7.99999 3.49998 7.99999.9162-.4008-3.50002-8.00001zm-2.04192 5.79959h5v-1h-5z" fill="#000"/></svg>