<svg viewBox="0 0 32 32" xmlns="http://www.w3.org/2000/svg"><path d="m11.404297 3.359375c-.845308-.0560551-1.6760783.0951878-2.404297.515625-.9709582.560583-1.6175439 1.5174554-1.9648438 2.6191406-.3472996 1.1016852-.4275678 2.3713219-.3007812 3.7578124.0128425.14044.0375485.286825.0546875.429688-.1325386.056686-.2721135.108764-.4003906.167968-1.2641296.583445-2.3230782 1.287059-3.1035157 2.138672-.7804373.851613-1.2851562 1.890553-1.2851562 3.011719s.5047188 2.160106 1.2851562 3.011719c.7804375.851613 1.8393861 1.555227 3.1035157 2.138672.1282771.059204.267852.111282.4003906.167968-.017139.142863-.041845.289248-.0546875.429688-.1267866 1.386491-.0465184 2.656127.3007812 3.757812.3472999 1.101685.9938856 2.058558 1.9648438 2.619141s2.122263.64265 3.25.392578c1.127738-.250072 2.266954-.816095 3.404297-1.61914.115145-.081301.230608-.175491.345703-.261719.115095.086228.230558.180418.345703.261719 1.137343.803045 2.276559 1.369068 3.404297 1.61914 1.127737.250072 2.279042.168005 3.25-.392578s1.617544-1.517456 1.964844-2.619141.427568-2.371321.300781-3.757812c-.012842-.14044-.037549-.286825-.054687-.429688.132538-.056686.272113-.108764.40039-.167968 1.26413-.583445 2.323078-1.287059 3.103516-2.138672.780437-.851613 1.285156-1.890553 1.285156-3.011719s-.504719-2.160106-1.285156-3.011719c-.780438-.851613-1.839386-1.555227-3.103516-2.138672-.128277-.059204-.267852-.111282-.40039-.167968.017138-.142863.041845-.289248.054687-.429688.126787-1.3864908.046519-2.6561268-.300781-3.7578124-.3473-1.1016848-.993886-2.0585576-1.964844-2.6191406s-2.122263-.6426499-3.25-.3925781c-1.127738.2500726-2.266954.8160944-3.404297 1.6191406-.115145.0813006-.230608.1754909-.345703.2617187-.115095-.0862278-.230558-.180418-.345703-.2617187-1.137343-.8030458-2.276559-1.3690684-3.404297-1.6191406-.281934-.0625181-.563934-.1043619-.845703-.1230469zm-.130859 1.9921875c.170412.01283.351567.0411086.544921.0839844.755685.1675706 1.66069.5917221 2.615235 1.2558593-.795015.7541708-1.577395 1.6121474-2.324219 2.5722657-1.203529.1666936-2.3371561.4135139-3.3867188.7246093-.097739-1.1582603-.0138982-2.1545839.21875-2.8925781.2381825-.7555499.5946735-1.2204367 1.0585938-1.4882812.34794-.2008834.762201-.2943494 1.273438-.2558594zm9.453124 0c.511237-.0384901.925498.054976 1.273438.2558594.46392.2678445.820412.7327315 1.058594 1.4882812.232648.7379942.316488 1.7343179.21875 2.8925781-1.049563-.3110954-2.18319-.5579157-3.386719-.7246093-.746824-.9601183-1.529204-1.8180949-2.324219-2.5722657.954545-.6641366 1.85955-1.0882887 2.615235-1.2558593.193354-.0428757.37451-.0711544.544921-.0839844zm-4.726562 2.6074219c.351492.3249764.702356.6863526 1.052734 1.0644531-.348719-.0123319-.697242-.0234375-1.052734-.0234375s-.704015.0111056-1.052734.0234375c.350378-.3781005.701242-.7394766 1.052734-1.0644531zm0 3.0410156c.964537 0 1.899388.05672 2.798828.152344.532531.731124 1.048983 1.512346 1.53125 2.347656.482302.835371.900653 1.673194 1.267578 2.5-.366925.826806-.785276 1.664629-1.267578 2.5-.482267.83531-.998719 1.616532-1.53125 2.347656-.89944.095624-1.834291.152344-2.798828.152344s-1.899388-.05672-2.798828-.152344c-.532531-.731124-1.048983-1.512346-1.53125-2.347656-.482302-.835371-.900654-1.673194-1.267578-2.5.366924-.826806.785276-1.664629 1.267578-2.5.482267-.83531.998719-1.616532 1.53125-2.347656.89944-.095624 1.834291-.152344 2.798828-.152344zm-5.515625.599609c-.18503.29582-.369138.592542-.546875.900391-.1777373.30785-.3421866.615677-.5058594.923828-.1520177-.491761-.2889412-.977118-.3945312-1.443359.4570123-.141866.9448336-.266499 1.4472656-.38086zm11.03125 0c.502432.114361.990253.238994 1.447266.38086-.10559.466241-.242514.951598-.394532 1.443359-.163672-.308151-.328122-.615978-.505859-.923828-.177737-.307849-.361845-.604571-.546875-.900391zm-14.3613281 1.103516c.2555621 1.065372.6084727 2.17028 1.0664062 3.296875-.4579335 1.126595-.8108441 2.231503-1.0664062 3.296875-1.0514888-.494383-1.8718929-1.066416-2.3945313-1.636719-.5352341-.584047-.7597656-1.124467-.7597656-1.660156s.2245315-1.076109.7597656-1.660156c.5226384-.570303 1.3430425-1.142336 2.3945313-1.636719zm17.6914061 0c1.051488.494383 1.871893 1.066416 2.394531 1.636719.535234.584047.759766 1.124467.759766 1.660156s-.224532 1.076109-.759766 1.660156c-.522638.570303-1.343043 1.142336-2.394531 1.636719-.255562-1.065372-.608473-2.17028-1.066406-3.296875.457933-1.126595.810844-2.231503 1.066406-3.296875zm-8.845703.296875c-1.64501 0-3 1.35499-3 3s1.35499 3 3 3 3-1.35499 3-3-1.35499-3-3-3zm0 2c.564129 0 1 .435871 1 1s-.435871 1-1 1-1-.435871-1-1 .435871-1 1-1zm-6.5683594 3.576172c.1636728.308151.3281221.615978.5058594.923828.177737.307849.361845.604571.546875.900391-.502432-.114361-.9902533-.238994-1.4472656-.38086.10559-.466241.2425135-.951598.3945312-1.443359zm13.1367184 0c.152018.491761.288942.977118.394532 1.443359-.457013.141866-.944834.266499-1.447266.38086.18503-.29582.369138-.592542.546875-.900391.177737-.30785.342187-.615677.505859-.923828zm-13.8457028 3.435547c1.0495627.311095 2.1831898.557915 3.3867188.724609.746824.960118 1.529204 1.818095 2.324219 2.572266-.954545.664136-1.85955 1.088288-2.615235 1.255859-.773417.171502-1.354439.095969-1.818359-.171875-.4639203-.267845-.8204112-.732732-1.0585938-1.488281-.2326482-.737995-.316489-1.734318-.21875-2.892578zm14.5546878 0c.097738 1.15826.013896 2.154583-.21875 2.892578-.238182.75555-.594674 1.220436-1.058594 1.488281-.46392.267844-1.044943.343378-1.818359.171875-.755685-.167571-1.66069-.591723-2.615235-1.255859.795015-.754171 1.577395-1.612148 2.324219-2.572266 1.203529-.166694 2.337156-.413514 3.386719-.724609zm-8.330078.964843c.348719.012332.697242.023438 1.052734.023438s.704015-.011106 1.052734-.023438c-.350378.378101-.701242.739477-1.052734 1.064454-.351492-.324977-.702356-.686353-1.052734-1.064454z"/></svg>